<svg width="26" height="32" viewBox="0 0 26 32" fill="none" xmlns="http://www.w3.org/2000/svg">
<path d="M1.81388 0C7.93971 0 14.0647 0 20.1905 0C20.2064 0.0125 20.2205 0.032501 20.238 0.037501C21.4605 0.403334 22.0022 1.12417 22.0022 2.38833C22.0022 5.555 22.0022 8.72167 22.0022 11.8883C22.0022 12.0067 22.0022 12.1242 22.0022 12.22C21.4222 12.1417 20.8889 12.0308 20.3522 12.0083C19.8147 11.9858 19.2639 11.9983 18.7347 12.0883C13.9089 12.9075 10.863 18.4275 13.403 23.0658C13.4639 23.1775 13.498 23.3192 13.4989 23.4475C13.5055 24.6767 13.5022 25.9058 13.5014 27.135C13.5014 27.2467 13.5014 27.3583 13.5014 27.5C13.3597 27.5 13.248 27.5 13.1364 27.5C9.55305 27.5 5.96888 27.5 2.38554 27.5C0.88971 27.5 0.000543724 26.6075 0.000543724 25.1075C0.000543724 20.2742 0.000543724 15.4408 0.000543724 10.6075C0.000543724 7.81583 -0.00112213 5.02417 0.00137787 2.2325C0.0022112 1.27667 0.526378 0.491666 1.37638 0.152499C1.52054 0.0958322 1.66804 0.0508333 1.81388 0ZM10.2655 7C11.6614 7 13.0572 7.00333 14.453 6.99833C15.0605 6.99583 15.5047 6.5625 15.5014 5.99333C15.498 5.42667 15.0514 5.005 14.4405 5C13.9722 4.99583 13.503 4.99917 13.0347 4.99917C10.7222 4.99917 8.40971 5.00167 6.09804 4.9975C5.64971 4.99667 5.30471 5.16167 5.10388 5.56833C4.77138 6.24333 5.26388 6.99333 6.04721 6.9975C7.45304 7.005 8.85888 7 10.2655 7ZM10.283 9C8.89804 9 7.51221 8.99917 6.12721 9C5.45805 9.00083 5.00721 9.39917 5.00221 9.99C4.99721 10.58 5.45221 10.9992 6.11054 10.9992C8.87054 11.0008 11.6305 11.0008 14.3905 10.9992C15.0505 10.9992 15.5047 10.5825 15.5005 9.99167C15.4964 9.40333 15.0422 9 14.3764 9C13.0122 8.99917 11.648 9 10.283 9ZM8.50305 13C7.69055 13 6.87804 12.9975 6.06638 13.0008C5.45138 13.0033 5.00805 13.42 5.00221 13.9883C4.99638 14.5683 5.44638 14.9975 6.07721 14.9983C7.69138 15.0017 9.30554 15.0017 10.9205 14.9983C11.553 14.9975 12.0039 14.5717 12.0005 13.9933C11.9972 13.415 11.5464 13.0025 10.9089 13C10.1072 12.9983 9.30555 13 8.50305 13Z" fill="#686775"/>
<path d="M25.502 19.4916C25.4995 16.4599 23.0236 13.9949 19.9861 14.0007C16.967 14.0057 14.5053 16.4716 14.502 19.4916C14.4986 22.5257 16.9686 24.9999 20.0011 24.9999C23.0336 24.9991 25.5053 22.5249 25.502 19.4916Z" fill="white"/>
<path d="M16.2519 32.0002C15.6669 31.751 15.481 31.3035 15.4927 30.681C15.521 29.0893 15.5019 27.496 15.5019 25.9035C15.5019 25.791 15.5019 25.6785 15.5019 25.5352C18.501 27.4943 21.4777 27.4985 24.5027 25.536C24.5027 25.6577 24.5027 25.7643 24.5027 25.871C24.5027 27.4743 24.4844 29.0777 24.5119 30.6802C24.5227 31.3018 24.3369 31.7493 23.7527 31.9993C23.586 31.9993 23.4194 31.9993 23.2527 31.9993C22.2535 31.4302 21.251 30.8668 20.2569 30.2885C20.0694 30.1793 19.9344 30.1827 19.7485 30.291C18.7544 30.8685 17.7519 31.4318 16.7519 31.9993C16.5852 32.0002 16.4185 32.0002 16.2519 32.0002Z" fill="#F48383"/>
<path d="M16.752 32.0001C17.752 31.4318 18.7544 30.8693 19.7486 30.2918C19.9344 30.1835 20.0703 30.1801 20.2569 30.2893C21.2503 30.8676 22.2528 31.4318 23.2528 32.0001C21.0861 32.0001 18.9186 32.0001 16.752 32.0001Z" fill="white"/>
<path d="M25.502 19.4917C25.5045 22.525 23.0336 25 20.0011 24.9992C16.9686 24.9992 14.4986 22.525 14.502 19.4908C14.5053 16.4708 16.967 14.0058 19.9861 14C23.0236 13.995 25.4995 16.4592 25.502 19.4917ZM19.2244 19.6683C18.9744 19.505 18.747 19.3417 18.5053 19.2017C18.0411 18.9333 17.4761 19.065 17.1786 19.4975C16.8736 19.9408 16.9586 20.5375 17.4053 20.8575C17.9203 21.2267 18.4495 21.5775 18.987 21.9133C19.4361 22.1933 19.9953 22.0942 20.2936 21.66C20.9995 20.6325 21.6903 19.5933 22.3653 18.545C22.6278 18.1375 22.5236 17.6517 22.1703 17.3267C21.8303 17.015 21.3486 16.96 20.9653 17.2283C20.8011 17.3433 20.6695 17.5183 20.5536 17.6867C20.1086 18.3367 19.6744 18.9958 19.2244 19.6683Z" fill="#F48383"/>
</svg>
