<svg width="29" height="32" viewBox="0 0 29 32" fill="none" xmlns="http://www.w3.org/2000/svg">
<path d="M0.063909 18.9759C-0.406406 13.9135 1.75574 9.32789 5.34189 6.41455C6.73977 5.27796 8.83006 6.25125 8.83006 8.04759C8.83006 8.70734 8.51652 9.31483 8.00701 9.72635C5.466 11.797 3.93748 15.0631 4.30981 18.6689C4.79319 23.3655 8.55571 27.1672 13.2458 27.6898C19.3664 28.3757 24.566 23.5811 24.566 17.5976C24.566 14.423 23.0963 11.5815 20.8035 9.71982C20.294 9.3083 19.987 8.70081 19.987 8.04759C19.987 6.27084 22.0446 5.26489 23.4294 6.37536C26.7086 9.02088 28.8119 13.0643 28.8119 17.5976C28.8119 25.8869 21.7703 32.5693 13.3503 31.9618C6.38704 31.4719 0.710592 25.9261 0.063909 18.9759Z" fill="#686775"/>
<path d="M12.791 2.12295C12.791 0.953695 13.7382 0 14.914 0C16.0898 0 17.0369 0.953695 17.0369 2.12295V11.9016C17.0369 13.0708 16.0832 14.0245 14.914 14.0245C13.7447 14.0245 12.791 13.0774 12.791 11.9016V2.12295Z" fill="#F48383"/>
</svg>
