<svg width="29" height="32" viewBox="0 0 29 32" fill="none" xmlns="http://www.w3.org/2000/svg">
<path d="M14.324 0C9.75257 0 6.01562 3.73694 6.01562 8.3084C6.01562 12.8799 9.75257 16.6168 14.324 16.6168C18.8955 16.6168 22.6324 12.8799 22.6324 8.3084C22.6324 3.73694 18.8955 0 14.324 0Z" fill="#686775"/>
<path d="M28.5826 23.2563C28.3649 22.712 28.0747 22.2041 27.7482 21.7325C26.0792 19.2653 23.5033 17.6327 20.6008 17.2336C20.2381 17.1973 19.839 17.2698 19.5487 17.4875C18.0249 18.6123 16.2108 19.1927 14.3242 19.1927C12.4375 19.1927 10.6235 18.6123 9.09967 17.4875C8.80939 17.2698 8.41029 17.161 8.04751 17.2336C5.14502 17.6327 2.5328 19.2653 0.900157 21.7325C0.57363 22.2041 0.283352 22.7484 0.0657135 23.2563C-0.0431059 23.474 -0.00685593 23.7279 0.101963 23.9457C0.392241 24.4536 0.755019 24.9616 1.08155 25.3969C1.58946 26.0863 2.1337 26.703 2.7505 27.2835C3.25842 27.7914 3.83891 28.2631 4.41946 28.7347C7.28564 30.8754 10.7324 32 14.2879 32C17.8435 32 21.2902 30.8753 24.1564 28.7347C24.7369 28.2994 25.3174 27.7914 25.8253 27.2835C26.4058 26.703 26.9863 26.0862 27.4943 25.3969C27.8571 24.9252 28.1837 24.4536 28.4739 23.9457C28.6552 23.7279 28.6915 23.4739 28.5826 23.2563Z" fill="#F48383"/>
</svg>
