<svg width="29" height="22" viewBox="0 0 29 22" fill="none" xmlns="http://www.w3.org/2000/svg">
<path d="M14.2417 8.33542C13.2367 7.65375 12.3642 7.83294 11.6552 8.45228C11.3397 8.21857 11.0281 7.98485 10.6853 7.73166C10.919 7.10452 11.0086 6.40338 10.9736 5.68275C10.8567 3.29106 8.85065 1.23826 6.44338 1.06297C3.83745 0.872106 1.55093 2.64834 1.13024 5.19195C0.674499 7.95369 2.52085 10.4856 5.32154 10.9258C5.53189 10.9569 5.62537 11.0309 5.67601 11.2296C5.74613 11.5101 5.84351 11.7788 5.94868 12.1138C5.67212 12.0749 5.43061 12.0476 5.193 12.0087C2.57928 11.5451 0.631651 9.68319 0.113581 7.14737C-0.568089 3.79745 1.90151 0.420255 5.29817 0.0541008C5.56695 0.026834 5.83572 0.00346245 6.10449 0.00346245C12.2707 0.00346245 18.4369 -0.00432807 24.5992 0.00346245C25.586 0.00346245 27.9231 1.74464 28.6866 4.38563C29.7773 8.16403 26.9805 11.9931 23.0541 12.0671C21.0441 12.106 20.8675 12.0749 18.8576 12.0827C18.655 12.0827 18.5966 11.997 18.546 11.8295C18.246 10.8634 17.9422 9.89353 17.6189 8.9314C17.2021 7.68881 15.7686 7.2019 14.713 7.93421C14.5455 8.05107 14.4014 8.19909 14.2456 8.33153L14.2417 8.33542ZM18.6745 6.59035C20.2404 6.59035 21.8024 6.59035 23.3683 6.59035C23.4618 6.59035 23.5553 6.59424 23.6487 6.59035C23.9331 6.56308 24.1357 6.36053 24.159 6.09175C24.1824 5.79961 24.011 5.56979 23.715 5.51136C23.6059 5.48799 23.489 5.49188 23.3761 5.49188C20.2482 5.49188 17.1164 5.49188 13.9885 5.49188C13.8638 5.49188 13.7392 5.49188 13.6184 5.51915C13.338 5.58148 13.1783 5.8074 13.2017 6.08786C13.225 6.37611 13.4003 6.53192 13.673 6.58645C13.7626 6.60203 13.86 6.59424 13.9534 6.59424C15.5271 6.59424 17.1047 6.59424 18.6784 6.59424L18.6745 6.59035ZM16.5048 2.74183C15.2934 2.74183 14.082 2.74183 12.8706 2.74183C12.7771 2.74183 12.6836 2.73794 12.5901 2.74962C12.298 2.79247 12.0915 3.01839 12.0915 3.29496C12.0915 3.57152 12.298 3.80134 12.5901 3.84029C12.6719 3.85198 12.7537 3.84808 12.8394 3.84808C15.2739 3.84808 17.7085 3.84808 20.143 3.84808C20.256 3.84808 20.3728 3.84808 20.4819 3.81303C20.7351 3.73512 20.8753 3.55205 20.8675 3.27938C20.8597 3.01839 20.7234 2.847 20.4819 2.77689C20.365 2.74183 20.2365 2.74183 20.1157 2.74183C18.916 2.74183 17.7124 2.74183 16.5126 2.74183H16.5048Z" fill="#686775"/>
<path d="M9.63397 21.9996C7.97069 21.9684 6.50997 20.9478 5.98022 19.3703C5.45436 17.8005 4.95966 16.219 4.46106 14.6414C4.26241 14.0065 4.56624 13.4105 5.15832 13.2196C5.7504 13.0288 6.34247 13.3482 6.54892 13.9792C6.75537 14.5986 6.94624 15.2218 7.1449 15.8412C7.28902 16.2891 7.56948 16.4761 7.91616 16.3514C8.22778 16.2424 8.32906 15.9424 8.19272 15.514C7.36693 12.9236 6.53724 10.3294 5.71144 7.73902C5.67639 7.62995 5.64133 7.52088 5.61406 7.41181C5.51278 6.96775 5.73871 6.54707 6.14771 6.41852C6.58009 6.28219 7.02415 6.48864 7.17606 6.9288C7.43315 7.68059 7.67076 8.44406 7.91226 9.20363C8.51993 11.1162 9.12759 13.0288 9.73914 14.9414C9.89495 15.4244 10.1598 15.6308 10.4948 15.5334C10.8493 15.4283 10.9506 15.1166 10.7831 14.6025C10.2923 13.0638 9.79757 11.5291 9.31456 9.99048C9.10811 9.33997 9.51322 8.77905 10.1365 8.83358C10.5533 8.86864 10.7714 9.13741 10.8921 9.51136C11.3518 10.9604 11.8153 12.4094 12.275 13.8585C12.3256 14.0143 12.3684 14.1779 12.4308 14.3298C12.5554 14.6375 12.8398 14.7816 13.128 14.6843C13.4163 14.5908 13.5643 14.3103 13.463 13.9831C13.0852 12.7678 12.6956 11.5564 12.31 10.3449C12.2711 10.2281 12.2321 10.1073 12.2087 9.98658C12.1308 9.55031 12.3684 9.15689 12.7736 9.04003C13.1903 8.91538 13.6266 9.12183 13.7746 9.55031C14.0356 10.3021 14.2693 11.0656 14.5108 11.8251C14.6783 12.3471 14.8419 12.8691 15.0133 13.391C15.138 13.7689 15.4223 13.952 15.7339 13.8585C16.0495 13.765 16.1819 13.4573 16.0611 13.0716C15.7145 11.9654 15.3483 10.8669 15.0094 9.75676C14.8341 9.18416 15.2431 8.6583 15.8157 8.68556C16.1858 8.70504 16.4468 8.89591 16.5597 9.24648C17.2297 11.3227 17.9348 13.391 18.5385 15.4867C19.0956 17.4226 17.9854 19.4404 16.0767 20.0831C14.2927 20.6791 12.4931 21.24 10.6974 21.8009C10.3546 21.9061 9.98844 21.9372 9.63397 21.9996ZM9.43142 20.8621C9.85989 20.8816 10.1287 20.6947 10.1559 20.3519C10.1793 20.0286 9.9417 19.8026 9.53659 19.7676C8.81986 19.7053 8.32516 19.343 8.05249 18.673C7.90058 18.303 7.61233 18.1549 7.30071 18.2874C7.00467 18.412 6.8956 18.712 7.03973 19.0742C7.46821 20.161 8.28621 20.7336 9.43531 20.8621H9.43142Z" fill="#F48383"/>
<path d="M5.2086 9.79217C3.91537 9.44549 3.01167 8.72487 2.52476 7.55239C1.90931 6.0683 2.13524 4.66601 3.21033 3.47406C4.26205 2.31327 5.61371 1.93543 7.11338 2.37559C8.64422 2.82355 9.54402 3.89864 9.82838 5.46453C9.94134 6.09167 9.87123 6.7227 9.65309 7.33426C9.5596 7.60303 9.45054 7.84454 9.14281 7.94192C9.01037 7.98477 8.89741 8.09384 8.7416 8.19511C8.56631 7.65367 8.40661 7.11612 8.21963 6.58637C7.85738 5.55413 6.77449 5.03216 5.76172 5.38663C4.81518 5.72162 4.28153 6.70712 4.5503 7.68094C4.74117 8.3665 4.97099 9.04038 5.2047 9.79217H5.2086Z" fill="#686775"/>
</svg>
