<svg width="32" height="33" viewBox="0 0 32 33" fill="none" xmlns="http://www.w3.org/2000/svg">
<path fill-rule="evenodd" clip-rule="evenodd" d="M7.06977 0.25C3.16525 0.25 0 3.41525 0 7.31977V25.1802C0 29.0848 3.16525 32.25 7.06977 32.25C10.9743 32.25 14.1395 29.0848 14.1395 25.1802V7.31977C14.1395 3.41525 10.9743 0.25 7.06977 0.25ZM7.06977 22.5756C5.63126 22.5756 4.46512 23.7417 4.46512 25.1802C4.46512 26.6187 5.63126 27.7849 7.06977 27.7849C8.50828 27.7849 9.67442 26.6187 9.67442 25.1802C9.67442 23.7417 8.50828 22.5756 7.06977 22.5756Z" fill="#686775"/>
<path d="M16.344 25.9037C16.3623 25.665 16.3717 25.4237 16.3717 25.1802V7.31975C16.3717 6.86344 16.3388 6.4148 16.2754 5.97608L16.8792 5.3722C19.6402 2.61128 24.1164 2.61128 26.8774 5.3722C29.6383 8.13312 29.6383 12.6095 26.8774 15.3704L16.344 25.9037Z" fill="#F48383"/>
<path d="M13.1016 32.25C13.3144 32.072 13.5211 31.8831 13.7212 31.6832L26.989 18.4153C29.8888 19.2971 31.9988 21.9923 31.9988 25.1802C31.9988 29.0848 28.8335 32.25 24.9291 32.25H13.1016Z" fill="#F48383"/>
</svg>
