<svg width="32" height="32" viewBox="0 0 32 32" fill="none" xmlns="http://www.w3.org/2000/svg">
<path d="M8.67059 8.5625H8.26934L7.51953 12.3125H9.42041L8.67059 8.5625Z" fill="#686775"/>
<path d="M23.8359 16.0625C24.2408 17.1499 24.7792 18.0302 25.3751 18.7792C25.9709 18.0302 26.5719 17.1499 26.9767 16.0625H23.8359Z" fill="#F48383"/>
<path d="M29.189 5.6875H17.5463L19.974 25.1674C20.0169 25.9642 19.7991 26.7143 19.2791 27.3016L15.168 32H29.189C30.7399 32 32.0015 30.7384 32.0015 29.1875V8.5625C32.0015 7.01163 30.7399 5.6875 29.189 5.6875ZM29.189 16.0625H28.9387C28.4052 17.7739 27.5593 19.1131 26.6802 20.1689C27.3688 20.7985 28.1053 21.315 28.8375 21.8935C29.2412 22.2167 29.3072 22.8062 28.983 23.2109C28.6604 23.615 28.0685 23.6805 27.6656 23.3565C26.87 22.7286 26.1233 22.2029 25.3765 21.5177C24.6298 22.2029 23.9455 22.7286 23.15 23.3565C22.747 23.6805 22.1552 23.615 21.8325 23.2109C21.5084 22.8062 21.5743 22.2167 21.9781 21.8935C22.7103 21.315 23.3842 20.7985 24.0729 20.1689C23.1938 19.1132 22.4103 17.774 21.8769 16.0625H21.6265C21.1083 16.0625 20.689 15.6432 20.689 15.125C20.689 14.6068 21.1083 14.1875 21.6265 14.1875H24.439V13.25C24.439 12.7318 24.8583 12.3125 25.3765 12.3125C25.8947 12.3125 26.314 12.7318 26.314 13.25V14.1875H29.189C29.7072 14.1875 30.1265 14.6068 30.1265 15.125C30.1265 15.6432 29.7072 16.0625 29.189 16.0625Z" fill="#F48383"/>
<path d="M15.2603 2.46369C15.0854 1.05925 13.8851 0 12.4698 0H2.8125C1.26163 0 0 1.26163 0 2.8125V23.5625C0 25.1134 1.26163 26.375 2.8125 26.375C8.41687 26.375 12.4486 26.375 17.5969 26.375C17.8704 26.0624 18.0997 25.8666 18.1094 25.4586C18.1117 25.3563 15.2729 2.56519 15.2603 2.46369ZM11.4965 17.9192C10.9994 18.0215 10.4958 17.6987 10.3933 17.184L9.79412 14.1875H7.14344L6.54425 17.184C6.44356 17.6912 5.95463 18.0244 5.44106 17.9192C4.93388 17.8176 4.60425 17.3241 4.70587 16.816L6.58081 7.441C6.66869 7.00338 7.05325 6.6875 7.5 6.6875H9.4375C9.88425 6.6875 10.2688 7.00338 10.3567 7.441L12.2317 16.816C12.3333 17.3241 12.0037 17.8176 11.4965 17.9192Z" fill="#686775"/>
<path d="M10.9531 28.25L11.114 29.5363C11.2213 30.3977 11.7936 31.2762 12.7351 31.7148C14.5119 29.7589 13.4369 30.9422 15.8826 28.25H10.9531Z" fill="#686775"/>
</svg>
