<svg width="32" height="32" viewBox="0 0 32 32" fill="none" xmlns="http://www.w3.org/2000/svg">
<path d="M26.6994 9.42331V7.85276C26.6994 3.52301 23.1764 0 18.8466 0H12.5644C8.23466 0 4.71166 3.52301 4.71166 7.85276V9.42331C2.1135 9.42331 0 11.5368 0 14.135V17.2761C0 19.8742 2.1135 21.9877 4.71166 21.9877H7.85276C8.72009 21.9877 9.42331 21.2853 9.42331 20.4172V10.9939C9.42331 10.1258 8.72009 9.42331 7.85276 9.42331V7.85276C7.85276 5.2546 9.96626 3.1411 12.5644 3.1411H18.8466C21.4448 3.1411 23.5583 5.2546 23.5583 7.85276V9.42331C22.6902 9.42331 21.9877 10.1258 21.9877 10.9939V20.4172C21.9877 21.2853 22.6902 21.9877 23.5583 21.9877V25.9141C23.5583 26.7807 22.8543 27.4847 21.9877 27.4847H21.658C21.1457 26.4433 20.0828 25.7178 18.8466 25.7178C17.1143 25.7178 15.7055 27.1273 15.7055 28.8589C15.7055 30.5905 17.1143 32 18.8466 32C19.9233 32 20.8742 31.454 21.4402 30.6258H21.9877C24.5859 30.6258 26.6994 28.5123 26.6994 25.9141V21.9877C29.2975 21.9877 31.411 19.8742 31.411 17.2761V14.135C31.411 11.5368 29.2975 9.42331 26.6994 9.42331Z" fill="#686775"/>
<path d="M14.1352 21.9878C14.1352 22.8559 14.8377 23.5583 15.7058 23.5583C16.5739 23.5583 17.2763 22.8559 17.2763 21.9878C17.2763 21.1197 16.5739 20.4172 15.7058 20.4172C14.8377 20.4172 14.1352 21.1197 14.1352 21.9878Z" fill="#F48383"/>
<path d="M12.5647 14.135C13.432 14.135 14.1352 13.4325 14.1352 12.5644C14.1352 11.6979 14.84 10.9939 15.7058 10.9939C16.5716 10.9939 17.2763 11.6979 17.2763 12.5644C17.2763 13.543 16.8546 13.885 15.9757 14.5046C15.2426 15.0215 14.1352 15.8037 14.1352 17.2761C14.1352 18.1442 14.8385 18.8466 15.7058 18.8466C16.5102 18.8466 17.1736 18.2424 17.2656 17.4617C17.3837 17.3559 17.6122 17.1948 17.7871 17.0706C18.7702 16.3773 20.4175 15.2147 20.4175 12.5644C20.4175 9.96628 18.304 7.85278 15.7058 7.85278C13.1076 7.85278 10.9941 9.96628 10.9941 12.5644C10.9941 13.4325 11.6974 14.135 12.5647 14.135Z" fill="#F48383"/>
</svg>
