<svg width="28" height="32" viewBox="0 0 28 32" fill="none" xmlns="http://www.w3.org/2000/svg">
<path d="M16.6615 2.73953V4.26217L16.2719 4.16956C14.686 3.79848 13.0359 3.79848 11.4501 4.16956L11.0605 4.26217V2.73953C11.0935 1.19393 12.3731 -0.0323039 13.9187 0.000648899C15.418 0.0325963 16.6257 1.24034 16.6576 2.73953H16.6615Z" fill="#F48383"/>
<path d="M18.3029 28.0588L18.2255 28.4395C17.7315 30.8492 15.3777 32.4022 12.968 31.9082C11.2218 31.5503 9.85724 30.1857 9.49929 28.4395L9.42188 28.0588H18.3029Z" fill="#F48383"/>
<path d="M27.7329 27.0386H0L4.34976 21.2448C4.41511 21.1562 4.45063 21.0491 4.4513 20.939V14.3141C4.45075 9.11357 8.66619 4.89723 13.8667 4.89673C19.0673 4.89617 23.2836 9.11161 23.2841 14.3122V14.3141V20.939C23.2839 21.0493 23.3195 21.1566 23.3856 21.2448L27.7329 27.0386Z" fill="#686775"/>
</svg>
