<svg width="21" height="24" viewBox="0 0 21 24" fill="none" xmlns="http://www.w3.org/2000/svg">
<path d="M12.4956 2.05464V3.19663L12.2034 3.12717C11.014 2.84886 9.77646 2.84886 8.5871 3.12717L8.29492 3.19663V2.05464C8.31964 0.895447 9.27936 -0.0242279 10.4386 0.000486674C11.563 0.0244472 12.4688 0.930257 12.4927 2.05464H12.4956Z" fill="#F48383"/>
<path d="M13.7272 21.0439L13.6691 21.3295C13.2986 23.1367 11.5333 24.3015 9.72599 23.931C8.41637 23.6625 7.39293 22.6391 7.12446 21.3295L7.06641 21.0439H13.7272Z" fill="#F48383"/>
<path d="M20.7997 20.2792H0L3.26232 15.9339C3.31133 15.8674 3.33798 15.7871 3.33848 15.7046V10.7359C3.33806 6.83548 6.49964 3.67323 10.4001 3.67285C14.3005 3.67243 17.4627 6.83401 17.4631 10.7344V10.7359V15.7046C17.4629 15.7873 17.4896 15.8678 17.5392 15.9339L20.7997 20.2792Z" fill="#686775"/>
</svg>
